<?xml version="1.0" standalone="no"?>
<!DOCTYPE svg PUBLIC "-//W3C//DTD SVG 20010904//EN"
 "http://www.w3.org/TR/2001/REC-SVG-20010904/DTD/svg10.dtd">
<svg version="1.0" xmlns="http://www.w3.org/2000/svg"
 width="512.000000pt" height="512.000000pt" viewBox="0 0 512.000000 512.000000"
 preserveAspectRatio="xMidYMid meet">
<metadata>
Created by potrace 1.14, written by Peter Selinger 2001-2017
</metadata>
<g transform="translate(0.000000,512.000000) scale(0.100000,-0.100000)"
fill="#000000" stroke="none">
<path d="M2485 4763 c-157 -19 -324 -69 -445 -134 -417 -225 -630 -622 -607
-1130 13 -266 86 -480 230 -671 207 -275 578 -458 929 -458 46 0 48 1 48 28 0
26 -4 29 -71 44 -135 32 -228 117 -309 283 -100 205 -140 410 -147 765 -9 425
39 722 153 940 73 139 189 248 281 264 94 16 93 16 93 47 l0 29 -62 -1 c-35
-1 -76 -4 -93 -6z"/>
<path d="M2822 4709 c3 -25 67 -120 242 -356 231 -314 239 -323 272 -323 l34
0 0 218 0 218 -37 36 c-94 90 -334 207 -477 234 l-39 7 5 -34z"/>
<path d="M2640 3492 c0 -27 5 -30 90 -57 l90 -29 0 -512 0 -513 68 19 c135 38
283 110 414 204 l57 41 1 373 0 372 85 39 c74 35 85 43 85 65 l0 26 -445 0
-445 0 0 -28z"/>
<path d="M557 1802 c-306 -306 -557 -564 -557 -572 0 -8 271 -286 603 -618
l602 -602 1145 0 1145 1 -1178 1174 c-648 646 -1183 1175 -1190 1175 -7 0
-263 -251 -570 -558z"/>
<path d="M3406 1794 l-569 -566 571 -571 571 -571 571 570 572 570 -567 564
c-311 311 -569 566 -573 567 -4 1 -263 -252 -576 -563z"/>
</g>
</svg>
