<?xml version="1.0" encoding="UTF-8"?><!DOCTYPE svg PUBLIC "-//W3C//DTD SVG 1.1//EN" "http://www.w3.org/Graphics/SVG/1.1/DTD/svg11.dtd"><svg xmlns="http://www.w3.org/2000/svg" xmlns:xlink="http://www.w3.org/1999/xlink"><defs/><symbol id="x" viewBox="0 0 24 24"><path stroke-linecap="round" stroke-linejoin="round" d="M6 18 18 6M6 6l12 12"/></symbol><symbol id="search" viewBox="0 0 24 24"><path stroke="currentColor" stroke-linecap="round" stroke-linejoin="round" d="m17 17 4 4M3 11a8 8 0 1 0 16 0 8 8 0 0 0-16 0z"/></symbol><symbol id="remove-pin" viewBox="0 0 24 24"><path stroke="currentColor" stroke-linecap="round" stroke-linejoin="round" d="M9.5 14.5 3 21M7.676 7.89l-.979-.102L5 9.485l9.193 9.193 1.697-1.697-.102-.981m-4.303-9 3.672-4.329 5.85 5.85-4.308 3.654M3 3l18 18"/></symbol><symbol id="remove-media-image" viewBox="0 0 24 24"><path stroke="currentColor" stroke-linecap="round" stroke-linejoin="round" d="m3 16 7-3 4 1.818M16 10a2 2 0 1 1 0-4 2 2 0 0 1 0 4zm.879 11.121L19 19m2.121-2.121L19 19m0 0-2.121-2.121M19 19l2.121 2.121"/><path stroke="currentColor" stroke-linecap="round" stroke-linejoin="round" d="M13 21H3.6a.6.6 0 0 1-.6-.6V3.6a.6.6 0 0 1 .6-.6h16.8a.6.6 0 0 1 .6.6V13"/></symbol><symbol id="pin" viewBox="0 0 24 24"><path stroke="currentColor" stroke-linecap="round" stroke-linejoin="round" d="M9.5 14.5 3 21M5 9.485l9.193 9.193 1.697-1.697-.393-3.787 5.51-4.673-5.85-5.85-4.674 5.51-3.786-.393L5 9.485z"/></symbol><symbol id="key" viewBox="0 0 24 24"><path stroke-linecap="round" stroke-linejoin="round" d="M15.75 5.25a3 3 0 0 1 3 3m3 0a6 6 0 0 1-7.029 5.912c-.563-.097-1.159.026-1.563.43L10.5 17.25H8.25v2.25H6v2.25H2.25v-2.818c0-.597.237-1.17.659-1.591l6.499-6.499c.404-.404.527-1 .43-1.563A6 6 0 1 1 21.75 8.25z"/></symbol><symbol id="github-mark" viewBox="0 0 98 96"><path fill="currentColor" fill-rule="evenodd" d="M48.854 0C21.839 0 0 22 0 49.217c0 21.756 13.993 40.172 33.405 46.69 2.427.49 3.316-1.059 3.316-2.362 0-1.141-.08-5.052-.08-9.127-13.59 2.934-16.42-5.867-16.42-5.867-2.184-5.704-5.42-7.17-5.42-7.17-4.448-3.015.324-3.015.324-3.015 4.934.326 7.523 5.052 7.523 5.052 4.367 7.496 11.404 5.378 14.235 4.074.404-3.178 1.699-5.378 3.074-6.6-10.839-1.141-22.243-5.378-22.243-24.283 0-5.378 1.94-9.778 5.014-13.2-.485-1.222-2.184-6.275.486-13.038 0 0 4.125-1.304 13.426 5.052a46.97 46.97 0 0 1 12.214-1.63c4.125 0 8.33.571 12.213 1.63 9.302-6.356 13.427-5.052 13.427-5.052 2.67 6.763.97 11.816.485 13.038 3.155 3.422 5.015 7.822 5.015 13.2 0 18.905-11.404 23.06-22.324 24.283 1.78 1.548 3.316 4.481 3.316 9.126 0 6.6-.08 11.897-.08 13.526 0 1.304.89 2.853 3.316 2.364 19.412-6.52 33.405-24.935 33.405-46.691C97.707 22 75.788 0 48.854 0z" clip-rule="evenodd"/></symbol><symbol id="arrow-right" viewBox="0 0 24 24"><path stroke="currentColor" stroke-linecap="round" stroke-linejoin="round" d="M3 12h18m0 0-8.5-8.5M21 12l-8.5 8.5"/></symbol><symbol id="arrow-left" viewBox="0 0 24 24"><path stroke="currentColor" stroke-linecap="round" stroke-linejoin="round" d="M21 12H3m0 0 8.5-8.5M3 12l8.5 8.5"/></symbol><symbol id="pillar/sport" viewBox="0 0 24 24"><path stroke="currentColor" stroke-linecap="round" stroke-linejoin="round" d="m12 8 3.804 2.764M12 8l-3.804 2.764M12 8V5m3.804 5.764-1.453 4.472m1.453-4.472L18.5 9.5m-4.149 5.736H9.65m4.702 0L16 17.5m-6.351-2.264-1.453-4.472m1.453 4.472L8 17.5m.196-6.736L5.5 9.5m0 0L2.05 13M5.5 9.5l-1-4.115m14 4.115 3.45 3.5M18.5 9.5l1-4.115M12 5 8.624 2.584M12 5l3.376-2.416M8 17.5 3.338 17M8 17.5l2.5 4.388M16 17.5l4.662-.5M16 17.5l-2.5 4.388M22 12c0 5.523-4.477 10-10 10S2 17.523 2 12 6.477 2 12 2s10 4.477 10 10z"/></symbol><symbol id="pillar/opinion" viewBox="0 0 24 24"><path stroke-linecap="round" stroke-linejoin="round" d="M7.5 8.25h9m-9 3H12m-9.75 1.51c0 1.6 1.123 2.994 2.707 3.227 1.129.166 2.27.293 3.423.379.35.026.67.21.865.501L12 21l2.755-4.133a1.14 1.14 0 0 1 .865-.501 48.172 48.172 0 0 0 3.423-.379c1.584-.233 2.707-1.626 2.707-3.228V6.741c0-1.602-1.123-2.995-2.707-3.228A48.394 48.394 0 0 0 12 3c-2.392 0-4.744.175-7.043.513C3.373 3.746 2.25 5.14 2.25 6.741v6.018z"/></symbol><symbol id="pillar/news" viewBox="0 0 24 24"><path stroke-linecap="round" stroke-linejoin="round" d="M12 7.5h1.5m-1.5 3h1.5m-7.5 3h7.5m-7.5 3h7.5m3-9h3.375c.621 0 1.125.504 1.125 1.125V18a2.25 2.25 0 0 1-2.25 2.25M16.5 7.5V18a2.25 2.25 0 0 0 2.25 2.25M16.5 7.5V4.875c0-.621-.504-1.125-1.125-1.125H4.125C3.504 3.75 3 4.254 3 4.875V18a2.25 2.25 0 0 0 2.25 2.25h13.5M6 7.5h3v3H6v-3z"/></symbol><symbol id="pillar/lifestyle" viewBox="0 0 24 24"><path stroke="currentColor" stroke-linecap="round" d="M1 20v-1a7 7 0 0 1 7-7v0a7 7 0 0 1 7 7v1"/><path stroke="currentColor" stroke-linecap="round" d="M13 14v0a5 5 0 0 1 5-5v0a5 5 0 0 1 5 5v.5"/><path stroke="currentColor" stroke-linecap="round" stroke-linejoin="round" d="M8 12a4 4 0 1 0 0-8 4 4 0 0 0 0 8zm10-3a3 3 0 1 0 0-6 3 3 0 0 0 0 6z"/></symbol><symbol id="pillar/arts" viewBox="0 0 24 24"><path stroke-linecap="round" stroke-linejoin="round" d="M9.53 16.122a3 3 0 0 0-5.78 1.128 2.25 2.25 0 0 1-2.4 2.245 4.5 4.5 0 0 0 8.4-2.245c0-.399-.078-.78-.22-1.128zm0 0a15.998 15.998 0 0 0 3.388-1.62m-5.043-.025a15.994 15.994 0 0 1 1.622-3.395m3.42 3.42a15.995 15.995 0 0 0 4.764-4.648l3.876-5.814a1.151 1.151 0 0 0-1.597-1.597L14.146 6.32a15.996 15.996 0 0 0-4.649 4.763m3.42 3.42a6.776 6.776 0 0 0-3.42-3.42"/></symbol></svg>